<?xml version="1.0" encoding="UTF-8"?>
<svg width="128" height="128" viewBox="0 0 128 128" xmlns="http://www.w3.org/2000/svg" role="img" aria-label="Coomeva">
  <!-- Fondo verde con esquinas suaves -->
  <rect x="0" y="0" width="128" height="128" rx="16" fill="#64C12A"/>
  <!-- Marca blanca (trazo estilizado en tres arcos). 
       Si tienes el path oficial del logo en SVG, reemplaza este 'g' por tus <path> reales. -->
  <g fill="#FFFFFF" transform="translate(36,28)">
    <path d="M28 0c7.2 8.4 13.4 17 18.6 26.1a3 3 0 0 1-5.2 2.9C36.5 20.7 31 13.2 24.6 6.1a3 3 0 0 1 3.4-6.1z"/>
    <path d="M18 18c6.7 7.7 12.5 15.5 17.3 23.7a3 3 0 0 1-5.2 2.9C24.4 36.8 19.2 29.7 13.2 23a3 3 0 1 1 4.8-5z"/>
    <path d="M7 34c5.7 6.5 10.6 13.1 14.7 20a3 3 0 1 1-5.2 2.9C12.8 49.9 8.4 44 3.4 38.4A3 3 0 0 1 7 34z"/>
  </g>
</svg>